<?xml version="1.0" standalone="no"?>
<!DOCTYPE svg PUBLIC "-//W3C//DTD SVG 20010904//EN"
 "http://www.w3.org/TR/2001/REC-SVG-20010904/DTD/svg10.dtd">
<svg version="1.0" xmlns="http://www.w3.org/2000/svg"
 width="300.000000pt" height="300.000000pt" viewBox="0 0 300.000000 300.000000"
 preserveAspectRatio="xMidYMid meet">
<metadata>
Created by potrace 1.11, written by Peter Selinger 2001-2013
</metadata>
<g transform="translate(0.000000,300.000000) scale(0.100000,-0.100000)"
fill="#000000" stroke="none">
<path d="M1275 2985 c-38 -7 -81 -15 -95 -19 -14 -3 -38 -8 -54 -11 -34 -7
-137 -41 -181 -59 -104 -44 -148 -66 -220 -110 -78 -47 -182 -124 -239 -177
l-28 -26 73 14 c83 17 285 22 400 10 112 -11 239 -46 375 -103 l61 -26 -65
-181 c-36 -100 -66 -183 -67 -184 0 -1 -43 15 -95 37 -129 52 -228 71 -364 69
-171 -2 -255 -33 -290 -106 -18 -39 -21 -109 -5 -150 25 -66 116 -127 274
-183 50 -17 99 -35 110 -40 11 -5 70 -29 130 -54 154 -64 229 -110 310 -191
119 -118 159 -227 158 -430 -1 -137 -26 -237 -83 -325 -93 -146 -273 -241
-516 -275 -98 -13 -412 -13 -434 0 -5 3 -10 2 -10 -3 0 -5 26 -34 59 -63 191
-176 404 -292 648 -353 149 -38 223 -45 408 -41 169 3 203 7 280 27 22 5 47
11 55 13 35 7 96 26 108 33 10 7 13 144 13 693 0 376 0 725 0 774 l-1 90 -309
-1 c-306 -1 -309 0 -313 20 -2 12 -3 100 -3 196 l1 175 767 3 c542 1 767 5
767 13 0 18 -90 200 -128 259 -235 362 -565 587 -997 678 -95 20 -407 24 -500
7z"/>
<path d="M15 1743 c-14 -77 -15 -375 0 -468 17 -108 58 -257 78 -289 17 -25
128 -72 252 -106 109 -30 392 -38 475 -14 95 29 142 71 160 147 9 36 9 59 0
97 -23 96 -125 167 -364 252 -274 98 -387 159 -482 261 -33 35 -69 84 -82 110
-13 26 -25 47 -26 47 -2 0 -7 -17 -11 -37z"/>
<path d="M2473 1629 c-14 -5 -16 -67 -16 -638 1 -347 3 -635 7 -638 8 -9 128
110 199 197 156 193 257 404 308 647 26 125 39 416 18 428 -14 9 -491 13 -516
4z"/>
</g>
</svg>
